<mxfile host="app.diagrams.net" modified="2024-07-22T06:23:20.342Z" agent="Mozilla/5.0 (Windows NT 10.0; Win64; x64) AppleWebKit/537.36 (KHTML, like Gecko) Chrome/126.0.0.0 Safari/537.36" etag="bHt2uXylG9Rhm6IvSC9v" version="24.7.1" type="github">
  <diagram name="第 1 页" id="mF1nou5ponUsJOA9iaHb">
    <mxGraphModel dx="1434" dy="746" grid="1" gridSize="10" guides="1" tooltips="1" connect="1" arrows="1" fold="1" page="1" pageScale="1" pageWidth="827" pageHeight="1169" math="0" shadow="0">
      <root>
        <mxCell id="0" />
        <mxCell id="1" parent="0" />
        <mxCell id="ACdGCAYhwhid7w9leYuw-1" value="发布修订草稿制度" style="shape=note2;boundedLbl=1;whiteSpace=wrap;html=1;size=25;verticalAlign=top;align=center;" vertex="1" parent="1">
          <mxGeometry x="80" y="40" width="120" height="60" as="geometry" />
        </mxCell>
        <mxCell id="ACdGCAYhwhid7w9leYuw-2" value="&amp;nbsp; &amp;nbsp; &amp;nbsp; &amp;nbsp; &amp;nbsp; &amp;nbsp; &amp;nbsp; &amp;nbsp; &amp;nbsp; &amp;nbsp; &amp;nbsp; &amp;nbsp; &amp;nbsp; &amp;nbsp; &amp;nbsp; &amp;nbsp; &amp;nbsp; &amp;nbsp; &amp;nbsp; &amp;nbsp; &amp;nbsp; &amp;nbsp; 用户" style="shape=umlLifeline;perimeter=lifelinePerimeter;whiteSpace=wrap;html=1;container=1;dropTarget=0;collapsible=0;recursiveResize=0;outlineConnect=0;portConstraint=eastwest;newEdgeStyle={&quot;curved&quot;:0,&quot;rounded&quot;:0};participant=umlActor;" vertex="1" parent="1">
          <mxGeometry x="80" y="120" width="40" height="420" as="geometry" />
        </mxCell>
        <mxCell id="ACdGCAYhwhid7w9leYuw-3" value="" style="html=1;points=[[0,0,0,0,5],[0,1,0,0,-5],[1,0,0,0,5],[1,1,0,0,-5]];perimeter=orthogonalPerimeter;outlineConnect=0;targetShapes=umlLifeline;portConstraint=eastwest;newEdgeStyle={&quot;curved&quot;:0,&quot;rounded&quot;:0};" vertex="1" parent="ACdGCAYhwhid7w9leYuw-2">
          <mxGeometry x="15" y="90" width="10" height="60" as="geometry" />
        </mxCell>
        <mxCell id="ACdGCAYhwhid7w9leYuw-4" value="制度系统" style="shape=umlLifeline;perimeter=lifelinePerimeter;whiteSpace=wrap;html=1;container=1;dropTarget=0;collapsible=0;recursiveResize=0;outlineConnect=0;portConstraint=eastwest;newEdgeStyle={&quot;curved&quot;:0,&quot;rounded&quot;:0};" vertex="1" parent="1">
          <mxGeometry x="190" y="120" width="100" height="420" as="geometry" />
        </mxCell>
        <mxCell id="ACdGCAYhwhid7w9leYuw-5" value="" style="html=1;points=[[0,0,0,0,5],[0,1,0,0,-5],[1,0,0,0,5],[1,1,0,0,-5]];perimeter=orthogonalPerimeter;outlineConnect=0;targetShapes=umlLifeline;portConstraint=eastwest;newEdgeStyle={&quot;curved&quot;:0,&quot;rounded&quot;:0};" vertex="1" parent="ACdGCAYhwhid7w9leYuw-4">
          <mxGeometry x="45" y="90" width="10" height="130" as="geometry" />
        </mxCell>
        <mxCell id="ACdGCAYhwhid7w9leYuw-6" value="1、发布制度（草稿）" style="html=1;verticalAlign=bottom;endArrow=block;curved=0;rounded=0;" edge="1" parent="1" source="ACdGCAYhwhid7w9leYuw-3" target="ACdGCAYhwhid7w9leYuw-5">
          <mxGeometry width="80" relative="1" as="geometry">
            <mxPoint x="110" y="230" as="sourcePoint" />
            <mxPoint x="190" y="230" as="targetPoint" />
            <Array as="points">
              <mxPoint x="170" y="230" />
            </Array>
          </mxGeometry>
        </mxCell>
        <mxCell id="ACdGCAYhwhid7w9leYuw-7" value="制度已发布列表&lt;div&gt;页面&lt;/div&gt;" style="shape=umlLifeline;perimeter=lifelinePerimeter;whiteSpace=wrap;html=1;container=1;dropTarget=0;collapsible=0;recursiveResize=0;outlineConnect=0;portConstraint=eastwest;newEdgeStyle={&quot;curved&quot;:0,&quot;rounded&quot;:0};" vertex="1" parent="1">
          <mxGeometry x="570" y="120" width="100" height="420" as="geometry" />
        </mxCell>
        <mxCell id="ACdGCAYhwhid7w9leYuw-8" value="" style="html=1;points=[[0,0,0,0,5],[0,1,0,0,-5],[1,0,0,0,5],[1,1,0,0,-5]];perimeter=orthogonalPerimeter;outlineConnect=0;targetShapes=umlLifeline;portConstraint=eastwest;newEdgeStyle={&quot;curved&quot;:0,&quot;rounded&quot;:0};" vertex="1" parent="ACdGCAYhwhid7w9leYuw-7">
          <mxGeometry x="45" y="202" width="10" height="40" as="geometry" />
        </mxCell>
        <mxCell id="ACdGCAYhwhid7w9leYuw-9" value="" style="html=1;points=[[0,0,0,0,5],[0,1,0,0,-5],[1,0,0,0,5],[1,1,0,0,-5]];perimeter=orthogonalPerimeter;outlineConnect=0;targetShapes=umlLifeline;portConstraint=eastwest;newEdgeStyle={&quot;curved&quot;:0,&quot;rounded&quot;:0};" vertex="1" parent="ACdGCAYhwhid7w9leYuw-7">
          <mxGeometry x="45" y="320" width="10" height="40" as="geometry" />
        </mxCell>
        <mxCell id="ACdGCAYhwhid7w9leYuw-10" value="制度未发布列表&lt;div&gt;页面&lt;/div&gt;" style="shape=umlLifeline;perimeter=lifelinePerimeter;whiteSpace=wrap;html=1;container=1;dropTarget=0;collapsible=0;recursiveResize=0;outlineConnect=0;portConstraint=eastwest;newEdgeStyle={&quot;curved&quot;:0,&quot;rounded&quot;:0};" vertex="1" parent="1">
          <mxGeometry x="320" y="120" width="100" height="420" as="geometry" />
        </mxCell>
        <mxCell id="ACdGCAYhwhid7w9leYuw-11" value="" style="html=1;points=[[0,0,0,0,5],[0,1,0,0,-5],[1,0,0,0,5],[1,1,0,0,-5]];perimeter=orthogonalPerimeter;outlineConnect=0;targetShapes=umlLifeline;portConstraint=eastwest;newEdgeStyle={&quot;curved&quot;:0,&quot;rounded&quot;:0};" vertex="1" parent="ACdGCAYhwhid7w9leYuw-10">
          <mxGeometry x="45" y="130" width="10" height="40" as="geometry" />
        </mxCell>
        <mxCell id="ACdGCAYhwhid7w9leYuw-12" value="" style="html=1;points=[[0,0,0,0,5],[0,1,0,0,-5],[1,0,0,0,5],[1,1,0,0,-5]];perimeter=orthogonalPerimeter;outlineConnect=0;targetShapes=umlLifeline;portConstraint=eastwest;newEdgeStyle={&quot;curved&quot;:0,&quot;rounded&quot;:0};" vertex="1" parent="ACdGCAYhwhid7w9leYuw-10">
          <mxGeometry x="45" y="260" width="10" height="100" as="geometry" />
        </mxCell>
        <mxCell id="ACdGCAYhwhid7w9leYuw-13" value="alt" style="shape=umlFrame;whiteSpace=wrap;html=1;pointerEvents=0;" vertex="1" parent="1">
          <mxGeometry x="110" y="240" width="690" height="130" as="geometry" />
        </mxCell>
        <mxCell id="ACdGCAYhwhid7w9leYuw-14" value="2、制度状态更新&lt;div&gt;（即将发布）&lt;/div&gt;" style="html=1;verticalAlign=bottom;endArrow=block;curved=0;rounded=0;" edge="1" parent="1" source="ACdGCAYhwhid7w9leYuw-5">
          <mxGeometry x="0.0069" width="80" relative="1" as="geometry">
            <mxPoint x="251" y="270" as="sourcePoint" />
            <mxPoint x="366" y="270" as="targetPoint" />
            <mxPoint as="offset" />
          </mxGeometry>
        </mxCell>
        <mxCell id="ACdGCAYhwhid7w9leYuw-15" value="3、制度状态更新（已发布）" style="html=1;verticalAlign=bottom;endArrow=block;curved=0;rounded=0;" edge="1" parent="1" source="ACdGCAYhwhid7w9leYuw-5">
          <mxGeometry width="80" relative="1" as="geometry">
            <mxPoint x="250" y="330" as="sourcePoint" />
            <mxPoint x="615" y="330" as="targetPoint" />
          </mxGeometry>
        </mxCell>
        <mxCell id="ACdGCAYhwhid7w9leYuw-16" value="" style="endArrow=none;dashed=1;html=1;rounded=0;exitX=0.004;exitY=0.491;exitDx=0;exitDy=0;exitPerimeter=0;entryX=0.999;entryY=0.492;entryDx=0;entryDy=0;entryPerimeter=0;" edge="1" parent="1" source="ACdGCAYhwhid7w9leYuw-13" target="ACdGCAYhwhid7w9leYuw-13">
          <mxGeometry width="50" height="50" relative="1" as="geometry">
            <mxPoint x="250" y="304.5" as="sourcePoint" />
            <mxPoint x="728" y="299" as="targetPoint" />
          </mxGeometry>
        </mxCell>
        <mxCell id="ACdGCAYhwhid7w9leYuw-17" value="&lt;font style=&quot;font-size: 10px;&quot;&gt;[发布日期大于当前日期]&lt;/font&gt;" style="text;html=1;align=center;verticalAlign=middle;resizable=0;points=[];autosize=1;strokeColor=none;fillColor=none;" vertex="1" parent="1">
          <mxGeometry x="110" y="270" width="130" height="30" as="geometry" />
        </mxCell>
        <mxCell id="ACdGCAYhwhid7w9leYuw-18" value="[&lt;font style=&quot;font-size: 10px;&quot;&gt;其他&lt;/font&gt;]" style="text;html=1;align=center;verticalAlign=middle;resizable=0;points=[];autosize=1;strokeColor=none;fillColor=none;" vertex="1" parent="1">
          <mxGeometry x="140" y="310" width="50" height="30" as="geometry" />
        </mxCell>
        <mxCell id="ACdGCAYhwhid7w9leYuw-19" value="制度发布定时&lt;div&gt;Task&lt;/div&gt;" style="shape=umlLifeline;perimeter=lifelinePerimeter;whiteSpace=wrap;html=1;container=1;dropTarget=0;collapsible=0;recursiveResize=0;outlineConnect=0;portConstraint=eastwest;newEdgeStyle={&quot;curved&quot;:0,&quot;rounded&quot;:0};" vertex="1" parent="1">
          <mxGeometry x="450" y="120" width="100" height="420" as="geometry" />
        </mxCell>
        <mxCell id="ACdGCAYhwhid7w9leYuw-20" value="" style="html=1;points=[[0,0,0,0,5],[0,1,0,0,-5],[1,0,0,0,5],[1,1,0,0,-5]];perimeter=orthogonalPerimeter;outlineConnect=0;targetShapes=umlLifeline;portConstraint=eastwest;newEdgeStyle={&quot;curved&quot;:0,&quot;rounded&quot;:0};" vertex="1" parent="ACdGCAYhwhid7w9leYuw-19">
          <mxGeometry x="45" y="260" width="10" height="40" as="geometry" />
        </mxCell>
        <mxCell id="ACdGCAYhwhid7w9leYuw-21" value="5、每日检查制度&lt;div&gt;(即将发布)发布日期&lt;/div&gt;" style="html=1;verticalAlign=bottom;endArrow=block;curved=0;rounded=0;" edge="1" parent="1" source="ACdGCAYhwhid7w9leYuw-20" target="ACdGCAYhwhid7w9leYuw-12">
          <mxGeometry width="80" relative="1" as="geometry">
            <mxPoint x="540" y="410" as="sourcePoint" />
            <mxPoint x="450" y="410" as="targetPoint" />
            <mxPoint as="offset" />
          </mxGeometry>
        </mxCell>
        <mxCell id="ACdGCAYhwhid7w9leYuw-22" value="6、制度状态更新（已发布）" style="html=1;verticalAlign=bottom;endArrow=block;curved=0;rounded=0;exitX=1.007;exitY=0.4;exitDx=0;exitDy=0;exitPerimeter=0;" edge="1" parent="1" target="ACdGCAYhwhid7w9leYuw-9" source="ACdGCAYhwhid7w9leYuw-24">
          <mxGeometry width="80" relative="1" as="geometry">
            <mxPoint x="440" y="460" as="sourcePoint" />
            <mxPoint x="520" y="460" as="targetPoint" />
          </mxGeometry>
        </mxCell>
        <mxCell id="ACdGCAYhwhid7w9leYuw-23" value="alt" style="shape=umlFrame;whiteSpace=wrap;html=1;pointerEvents=0;" vertex="1" parent="1">
          <mxGeometry x="244" y="420" width="490" height="70" as="geometry" />
        </mxCell>
        <mxCell id="ACdGCAYhwhid7w9leYuw-24" value="&lt;span style=&quot;font-size: 10px;&quot;&gt;[发布日期不大于当前日期]&lt;/span&gt;" style="text;html=1;align=center;verticalAlign=middle;resizable=0;points=[];autosize=1;strokeColor=none;fillColor=none;" vertex="1" parent="1">
          <mxGeometry x="236" y="448" width="140" height="30" as="geometry" />
        </mxCell>
        <mxCell id="ACdGCAYhwhid7w9leYuw-26" value="制度已修订列表&lt;div&gt;页面&lt;/div&gt;" style="shape=umlLifeline;perimeter=lifelinePerimeter;whiteSpace=wrap;html=1;container=1;dropTarget=0;collapsible=0;recursiveResize=0;outlineConnect=0;portConstraint=eastwest;newEdgeStyle={&quot;curved&quot;:0,&quot;rounded&quot;:0};" vertex="1" parent="1">
          <mxGeometry x="690" y="120" width="100" height="300" as="geometry" />
        </mxCell>
        <mxCell id="ACdGCAYhwhid7w9leYuw-28" value="" style="html=1;points=[[0,0,0,0,5],[0,1,0,0,-5],[1,0,0,0,5],[1,1,0,0,-5]];perimeter=orthogonalPerimeter;outlineConnect=0;targetShapes=umlLifeline;portConstraint=eastwest;newEdgeStyle={&quot;curved&quot;:0,&quot;rounded&quot;:0};" vertex="1" parent="ACdGCAYhwhid7w9leYuw-26">
          <mxGeometry x="45" y="228" width="10" height="20" as="geometry" />
        </mxCell>
        <mxCell id="ACdGCAYhwhid7w9leYuw-27" value="4、旧版本制度（修订&lt;div&gt;中）状态更新（已修&lt;/div&gt;&lt;div&gt;订）&lt;/div&gt;" style="html=1;verticalAlign=bottom;endArrow=block;curved=0;rounded=0;" edge="1" parent="1">
          <mxGeometry width="80" relative="1" as="geometry">
            <mxPoint x="626" y="360" as="sourcePoint" />
            <mxPoint x="735.5" y="360" as="targetPoint" />
          </mxGeometry>
        </mxCell>
      </root>
    </mxGraphModel>
  </diagram>
</mxfile>
